<?xml version="1.0" encoding="UTF-8" standalone="no"?>
<!DOCTYPE svg PUBLIC "-//W3C//DTD SVG 1.1//EN" "http://www.w3.org/Graphics/SVG/1.1/DTD/svg11.dtd">
<svg width="100%" height="100%" viewBox="0 0 1063 254" version="1.1" xmlns="http://www.w3.org/2000/svg" xmlns:xlink="http://www.w3.org/1999/xlink" xml:space="preserve" xmlns:serif="http://www.serif.com/" style="fill-rule:evenodd;clip-rule:evenodd;stroke-linejoin:round;stroke-miterlimit:2;">
    <g transform="matrix(1,0,0,1,-124.917,-1454.68)">
        <g id="logo-white" serif:id="logo white" transform="matrix(0.985641,0,0,0.845302,132.133,1472.44)">
            <rect x="-7.321" y="-21.01" width="1078.05" height="300.008" style="fill:none;"/>
            <g transform="matrix(2.00541,0,0,2.04913,-1985.23,-3792.88)">
                <g id="Layer1">
                    <g>
                        <path d="M1024.21,1870.57L1024.21,1917.56C1024.21,1919.09 1024.29,1920.89 1024.43,1922.93C1024.58,1924.99 1024.94,1927.09 1025.53,1929.25C1026.12,1931.41 1026.94,1933.53 1028,1935.62C1029.06,1937.7 1030.51,1939.57 1032.34,1941.22C1034.17,1942.86 1036.42,1944.18 1039.09,1945.17C1041.76,1946.15 1045,1946.65 1048.8,1946.65C1053.63,1946.65 1057.68,1945.97 1060.94,1944.62C1064.19,1943.26 1066.83,1941.32 1068.84,1938.8C1070.85,1936.27 1072.3,1933.22 1073.18,1929.63C1074.06,1926.05 1074.49,1922.02 1074.49,1917.56L1074.49,1870.57L1079.33,1870.57L1079.33,1917.56C1079.33,1922.24 1078.83,1926.6 1077.84,1930.62C1076.85,1934.65 1075.19,1938.16 1072.85,1941.16C1070.51,1944.16 1067.38,1946.52 1063.46,1948.24C1059.55,1949.96 1054.66,1950.82 1048.8,1950.82C1044.19,1950.82 1040.24,1950.24 1036.95,1949.06C1033.65,1947.89 1030.93,1946.38 1028.77,1944.51C1026.61,1942.64 1024.91,1940.5 1023.66,1938.09C1022.42,1935.67 1021.47,1933.24 1020.81,1930.79C1020.15,1928.33 1019.75,1925.95 1019.6,1923.65C1019.46,1921.34 1019.38,1919.31 1019.38,1917.56L1019.38,1870.57L1024.21,1870.57Z" style="fill:white;fill-rule:nonzero;"/>
                        <path d="M1144.32,1892.96C1144.17,1889.6 1143.46,1886.67 1142.18,1884.18C1140.9,1881.69 1139.16,1879.61 1136.96,1877.92C1134.77,1876.24 1132.15,1874.98 1129.11,1874.14C1126.08,1873.29 1122.76,1872.87 1119.18,1872.87C1116.98,1872.87 1114.62,1873.13 1112.1,1873.64C1109.57,1874.15 1107.23,1875.05 1105.07,1876.33C1102.91,1877.61 1101.13,1879.33 1099.75,1881.49C1098.35,1883.65 1097.66,1886.34 1097.66,1889.56C1097.66,1892.71 1098.43,1895.27 1099.96,1897.25C1101.5,1899.22 1103.51,1900.81 1106,1902.02C1108.49,1903.23 1111.35,1904.2 1114.57,1904.93C1117.79,1905.66 1121.04,1906.36 1124.34,1907.02C1127.7,1907.67 1130.98,1908.46 1134.16,1909.38C1137.35,1910.29 1140.2,1911.54 1142.73,1913.11C1145.25,1914.68 1147.28,1916.73 1148.82,1919.26C1150.36,1921.78 1151.12,1924.95 1151.12,1928.75C1151.12,1932.85 1150.25,1936.29 1148.49,1939.07C1146.73,1941.86 1144.52,1944.12 1141.85,1945.88C1139.18,1947.64 1136.21,1948.9 1132.95,1949.67C1129.7,1950.44 1126.57,1950.82 1123.57,1950.82C1118.96,1950.82 1114.64,1950.33 1110.61,1949.34C1106.59,1948.35 1103.08,1946.74 1100.07,1944.51C1097.07,1942.28 1094.71,1939.4 1092.99,1935.89C1091.27,1932.38 1090.45,1928.1 1090.52,1923.05L1095.35,1923.05C1095.13,1927.36 1095.76,1931.01 1097.22,1933.97C1098.68,1936.93 1100.71,1939.37 1103.31,1941.27C1105.91,1943.17 1108.97,1944.55 1112.48,1945.39C1115.99,1946.23 1119.69,1946.65 1123.57,1946.65C1125.91,1946.65 1128.42,1946.36 1131.09,1945.77C1133.76,1945.18 1136.21,1944.2 1138.44,1942.81C1140.68,1941.42 1142.54,1939.59 1144.04,1937.32C1145.54,1935.05 1146.29,1932.19 1146.29,1928.75C1146.29,1925.46 1145.53,1922.77 1143.99,1920.68C1142.45,1918.6 1140.42,1916.92 1137.89,1915.63C1135.37,1914.35 1132.52,1913.33 1129.33,1912.56C1126.15,1911.79 1122.87,1911.08 1119.51,1910.42C1116.21,1909.76 1112.96,1908.99 1109.74,1908.11C1106.52,1907.24 1103.66,1906.05 1101.17,1904.55C1098.68,1903.05 1096.67,1901.11 1095.13,1898.73C1093.6,1896.35 1092.83,1893.29 1092.83,1889.56C1092.83,1885.83 1093.62,1882.63 1095.19,1879.95C1096.76,1877.28 1098.81,1875.12 1101.34,1873.48C1103.86,1871.83 1106.7,1870.62 1109.85,1869.85C1112.99,1869.09 1116.1,1868.7 1119.18,1868.7C1123.28,1868.7 1127.1,1869.16 1130.65,1870.07C1134.2,1870.99 1137.31,1872.42 1139.98,1874.36C1142.65,1876.3 1144.79,1878.8 1146.4,1881.88C1148.01,1884.95 1148.93,1888.65 1149.15,1892.96L1144.32,1892.96Z" style="fill:white;fill-rule:nonzero;"/>
                        <path d="M1162.32,1910.38L1162.32,1906.1L1167.15,1906.11L1167.15,1906.14L1193.72,1906.14C1200.38,1906.14 1205.36,1904.66 1208.65,1901.69C1211.94,1898.73 1213.59,1894.83 1213.59,1890C1213.59,1887.14 1213.04,1884.75 1211.94,1882.81C1210.85,1880.87 1209.38,1879.3 1207.55,1878.09C1205.72,1876.88 1203.62,1876.02 1201.24,1875.51C1198.86,1875 1196.36,1874.74 1193.72,1874.74L1171,1874.74L1162.32,1874.65L1162.32,1870.57L1193.72,1870.57C1198.4,1870.57 1202.32,1871.15 1205.47,1872.32C1208.62,1873.5 1211.14,1875.03 1213.04,1876.93C1214.95,1878.84 1216.32,1881.02 1217.16,1883.47C1218,1885.92 1218.42,1888.39 1218.42,1890.88C1218.42,1893 1218.06,1895.01 1217.33,1896.92C1216.59,1898.82 1215.55,1900.5 1214.2,1901.97C1212.84,1903.43 1211.23,1904.66 1209.37,1905.64C1207.5,1906.63 1205.43,1907.27 1203.16,1907.57L1203.38,1907.79C1203.89,1907.71 1205.1,1907.93 1207.01,1908.44C1208.91,1908.96 1210.9,1909.93 1212.99,1911.35C1215.07,1912.78 1216.94,1914.76 1218.59,1917.28C1220.23,1919.81 1221.06,1923.05 1221.06,1927C1221.06,1930.58 1220.4,1933.73 1219.08,1936.44C1217.76,1939.15 1215.92,1941.43 1213.54,1943.3C1211.16,1945.17 1208.29,1946.58 1204.92,1947.53C1201.55,1948.48 1197.82,1948.95 1193.72,1948.95L1162.32,1948.95L1162.32,1944.89L1167.99,1944.78L1193.72,1944.78C1200.75,1944.78 1206.26,1943.3 1210.24,1940.34C1214.23,1937.37 1216.23,1932.93 1216.23,1927C1216.23,1923.63 1215.53,1920.87 1214.14,1918.71C1212.75,1916.55 1210.98,1914.85 1208.82,1913.6C1206.66,1912.36 1204.24,1911.5 1201.57,1911.02C1198.9,1910.55 1196.28,1910.31 1193.72,1910.31L1167.15,1910.31L1167.15,1910.33L1162.32,1910.38Z" style="fill:white;"/>
                        <path d="M1228.52,1909.76C1228.52,1904.05 1229.36,1898.69 1231.05,1893.68C1232.73,1888.66 1235.16,1884.31 1238.35,1880.61C1241.53,1876.92 1245.45,1874.01 1250.1,1871.88C1254.74,1869.76 1260,1868.7 1265.85,1868.7C1270.46,1868.7 1274.45,1869.31 1277.82,1870.51C1281.18,1871.72 1284.02,1873.22 1286.33,1875.01C1288.63,1876.81 1290.52,1878.77 1291.98,1880.89C1293.44,1883.01 1294.56,1885.01 1295.33,1886.87C1296.1,1888.74 1296.63,1890.35 1296.92,1891.7C1297.21,1893.06 1297.36,1893.81 1297.36,1893.95L1292.53,1893.95C1292.02,1890.66 1290.95,1887.71 1289.34,1885.11C1287.73,1882.52 1285.72,1880.3 1283.31,1878.47C1280.89,1876.64 1278.2,1875.25 1275.24,1874.3C1272.27,1873.35 1269.14,1872.87 1265.85,1872.87C1260.73,1872.87 1256.15,1873.86 1252.13,1875.84C1248.1,1877.81 1244.7,1880.47 1241.92,1883.8C1239.13,1887.13 1237.01,1891.03 1235.55,1895.49C1234.09,1899.95 1233.35,1904.71 1233.35,1909.76C1233.35,1914.81 1234.09,1919.57 1235.55,1924.03C1237.01,1928.5 1239.13,1932.39 1241.92,1935.73C1244.7,1939.06 1248.1,1941.71 1252.13,1943.68C1256.15,1945.66 1260.73,1946.65 1265.85,1946.65C1269.66,1946.65 1273.22,1945.86 1276.55,1944.29C1279.88,1942.72 1282.79,1940.63 1285.28,1938.03C1287.77,1935.43 1289.77,1932.43 1291.27,1929.03C1292.77,1925.62 1293.62,1922.09 1293.85,1918.43L1298.67,1918.43C1298.24,1923.12 1297.08,1927.44 1295.22,1931.39C1293.35,1935.34 1290.97,1938.76 1288.08,1941.65C1285.19,1944.55 1281.84,1946.8 1278.04,1948.41C1274.23,1950.02 1270.17,1950.82 1265.85,1950.82C1260,1950.82 1254.74,1949.76 1250.1,1947.64C1245.45,1945.52 1241.53,1942.61 1238.35,1938.91C1235.16,1935.21 1232.73,1930.86 1231.05,1925.85C1229.36,1920.83 1228.52,1915.47 1228.52,1909.76Z" style="fill:white;fill-opacity:0.7;fill-rule:nonzero;"/>
                        <path d="M1313.73,1923.81L1313.72,1923.81L1303.73,1948.95L1298.57,1948.95L1330.07,1870.57L1335.34,1870.57L1366.3,1948.95L1361.14,1948.95L1353.64,1929.85L1349.67,1919.43L1349.64,1919.43L1332.93,1875.29L1332.71,1875.29L1315.25,1919.64L1315.33,1919.64L1313.73,1923.81Z" style="fill:white;fill-opacity:0.7;"/>
                        <path d="M1371.9,1874.73L1371.9,1870.57L1405.28,1870.57C1407.47,1870.57 1409.91,1870.82 1412.58,1871.34C1415.25,1871.85 1417.74,1872.89 1420.04,1874.47C1422.35,1876.04 1424.27,1878.27 1425.81,1881.16C1427.34,1884.05 1428.11,1887.84 1428.11,1892.53C1428.11,1899.4 1425.99,1904.71 1421.75,1908.44C1417.5,1912.18 1411.42,1914.04 1403.52,1914.04L1376.73,1914.04L1376.73,1948.95L1371.9,1948.95L1371.9,1909.75L1376.73,1909.75L1376.73,1909.87L1404.29,1909.87C1407.8,1909.87 1410.78,1909.34 1413.24,1908.28C1415.69,1907.22 1417.65,1905.85 1419.11,1904.16C1420.57,1902.48 1421.63,1900.61 1422.29,1898.56C1422.95,1896.51 1423.28,1894.47 1423.28,1892.41C1423.28,1890.95 1423.06,1889.21 1422.62,1887.2C1422.18,1885.19 1421.31,1883.25 1419.99,1881.38C1418.67,1879.52 1416.82,1877.94 1414.44,1876.66C1412.07,1875.38 1408.9,1874.74 1404.95,1874.74L1388.06,1874.74L1388.06,1874.73L1371.9,1874.73Z" style="fill:white;fill-opacity:0.7;"/>
                        <path d="M1487.94,1892.96C1487.8,1889.6 1487.09,1886.67 1485.8,1884.18C1484.52,1881.69 1482.79,1879.61 1480.59,1877.92C1478.39,1876.24 1475.78,1874.98 1472.74,1874.14C1469.7,1873.29 1466.39,1872.87 1462.8,1872.87C1460.61,1872.87 1458.25,1873.13 1455.72,1873.64C1453.2,1874.15 1450.86,1875.05 1448.7,1876.33C1446.54,1877.61 1444.76,1879.33 1443.37,1881.49C1441.98,1883.65 1441.29,1886.34 1441.29,1889.56C1441.29,1892.71 1442.06,1895.27 1443.59,1897.25C1445.13,1899.22 1447.14,1900.81 1449.63,1902.02C1452.12,1903.23 1454.97,1904.2 1458.19,1904.93C1461.41,1905.66 1464.67,1906.36 1467.96,1907.02C1471.33,1907.67 1474.61,1908.46 1477.79,1909.38C1480.97,1910.29 1483.83,1911.54 1486.35,1913.11C1488.88,1914.68 1490.91,1916.73 1492.45,1919.26C1493.98,1921.78 1494.75,1924.95 1494.75,1928.75C1494.75,1932.85 1493.87,1936.29 1492.12,1939.07C1490.36,1941.86 1488.15,1944.12 1485.48,1945.88C1482.8,1947.64 1479.84,1948.9 1476.58,1949.67C1473.33,1950.44 1470.2,1950.82 1467.2,1950.82C1462.59,1950.82 1458.27,1950.33 1454.24,1949.34C1450.22,1948.35 1446.7,1946.74 1443.7,1944.51C1440.7,1942.28 1438.34,1939.4 1436.62,1935.89C1434.9,1932.38 1434.08,1928.1 1434.15,1923.05L1438.98,1923.05C1438.76,1927.36 1439.38,1931.01 1440.85,1933.97C1442.31,1936.93 1444.34,1939.37 1446.94,1941.27C1449.54,1943.17 1452.59,1944.55 1456.11,1945.39C1459.62,1946.23 1463.32,1946.65 1467.2,1946.65C1469.54,1946.65 1472.05,1946.36 1474.72,1945.77C1477.39,1945.18 1479.84,1944.2 1482.07,1942.81C1484.3,1941.42 1486.17,1939.59 1487.67,1937.32C1489.17,1935.05 1489.92,1932.19 1489.92,1928.75C1489.92,1925.46 1489.15,1922.77 1487.62,1920.68C1486.08,1918.6 1484.05,1916.92 1481.52,1915.63C1479,1914.35 1476.14,1913.33 1472.96,1912.56C1469.78,1911.79 1466.5,1911.08 1463.13,1910.42C1459.84,1909.76 1456.58,1908.99 1453.36,1908.11C1450.14,1907.24 1447.29,1906.05 1444.8,1904.55C1442.31,1903.05 1440.3,1901.11 1438.76,1898.73C1437.22,1896.35 1436.46,1893.29 1436.46,1889.56C1436.46,1885.83 1437.24,1882.63 1438.82,1879.95C1440.39,1877.28 1442.44,1875.12 1444.96,1873.48C1447.49,1871.83 1450.33,1870.62 1453.47,1869.85C1456.62,1869.09 1459.73,1868.7 1462.8,1868.7C1466.9,1868.7 1470.73,1869.16 1474.28,1870.07C1477.83,1870.99 1480.94,1872.42 1483.61,1874.36C1486.28,1876.3 1488.42,1878.8 1490.03,1881.88C1491.64,1884.95 1492.56,1888.65 1492.78,1892.96L1487.94,1892.96Z" style="fill:white;fill-opacity:0.7;fill-rule:nonzero;"/>
                    </g>
                </g>
            </g>
        </g>
        <g id="Layer2">
        </g>
    </g>
</svg>
